<mxfile host="app.diagrams.net" agent="Mozilla/5.0 (Windows NT 10.0; Win64; x64) AppleWebKit/537.36 (KHTML, like Gecko) Chrome/136.0.0.0 Safari/537.36" version="27.0.6">
  <diagram name="Page-1" id="UW2ImWDbLDdc1KYBRxbe">
    <mxGraphModel dx="1226" dy="661" grid="1" gridSize="10" guides="1" tooltips="1" connect="1" arrows="1" fold="1" page="1" pageScale="1" pageWidth="850" pageHeight="1100" math="0" shadow="0">
      <root>
        <mxCell id="0" />
        <mxCell id="1" parent="0" />
        <mxCell id="8UEbDqk-dIBro4yHKkm--135" value="" style="edgeStyle=none;curved=1;rounded=0;orthogonalLoop=1;jettySize=auto;html=1;fontSize=12;startSize=8;endSize=8;" edge="1" parent="1" source="8UEbDqk-dIBro4yHKkm--136" target="8UEbDqk-dIBro4yHKkm--139">
          <mxGeometry relative="1" as="geometry" />
        </mxCell>
        <mxCell id="8UEbDqk-dIBro4yHKkm--136" value="&lt;div&gt;&lt;b&gt;&lt;br&gt;&lt;/b&gt;&lt;/div&gt;&lt;div&gt;&lt;b&gt;Prijava na hodočašće,&lt;/b&gt;&lt;/div&gt;&lt;div&gt;&lt;b&gt;ispunjavanje obrasca&lt;/b&gt;&lt;/div&gt;" style="rounded=1;whiteSpace=wrap;html=1;" vertex="1" parent="1">
          <mxGeometry x="260" y="280" width="120" height="90" as="geometry" />
        </mxCell>
        <mxCell id="8UEbDqk-dIBro4yHKkm--137" value="" style="edgeStyle=none;curved=1;rounded=0;orthogonalLoop=1;jettySize=auto;html=1;fontSize=12;startSize=8;endSize=8;" edge="1" parent="1" source="8UEbDqk-dIBro4yHKkm--139" target="8UEbDqk-dIBro4yHKkm--161">
          <mxGeometry relative="1" as="geometry" />
        </mxCell>
        <mxCell id="8UEbDqk-dIBro4yHKkm--138" value="Obrazac se&lt;div&gt;šalje&amp;nbsp;&lt;/div&gt;&lt;div&gt;djelatniku&lt;/div&gt;" style="edgeLabel;html=1;align=center;verticalAlign=middle;resizable=0;points=[];fontSize=12;" vertex="1" connectable="0" parent="8UEbDqk-dIBro4yHKkm--137">
          <mxGeometry x="-0.212" y="1" relative="1" as="geometry">
            <mxPoint as="offset" />
          </mxGeometry>
        </mxCell>
        <mxCell id="8UEbDqk-dIBro4yHKkm--139" value="&lt;div&gt;&lt;b&gt;&lt;br&gt;&lt;/b&gt;&lt;/div&gt;&lt;b&gt;Provjera podataka u obrascu&lt;/b&gt;" style="rounded=1;whiteSpace=wrap;html=1;" vertex="1" parent="1">
          <mxGeometry x="260" y="430" width="120" height="80" as="geometry" />
        </mxCell>
        <mxCell id="8UEbDqk-dIBro4yHKkm--140" value="&lt;b&gt;P3.1&lt;/b&gt;" style="rounded=1;whiteSpace=wrap;html=1;" vertex="1" parent="1">
          <mxGeometry x="260" y="280" width="120" height="20" as="geometry" />
        </mxCell>
        <mxCell id="8UEbDqk-dIBro4yHKkm--141" value="&lt;b&gt;P3.2&lt;/b&gt;" style="rounded=1;whiteSpace=wrap;html=1;" vertex="1" parent="1">
          <mxGeometry x="260" y="430" width="120" height="20" as="geometry" />
        </mxCell>
        <mxCell id="8UEbDqk-dIBro4yHKkm--142" value="" style="edgeStyle=none;curved=1;rounded=0;orthogonalLoop=1;jettySize=auto;html=1;fontSize=12;startSize=8;endSize=8;" edge="1" parent="1" source="8UEbDqk-dIBro4yHKkm--144" target="8UEbDqk-dIBro4yHKkm--150">
          <mxGeometry relative="1" as="geometry" />
        </mxCell>
        <mxCell id="8UEbDqk-dIBro4yHKkm--144" value="&lt;div&gt;&lt;b&gt;&lt;br&gt;&lt;/b&gt;&lt;/div&gt;&lt;b&gt;Dohvat podataka iz baze&lt;/b&gt;" style="rounded=1;whiteSpace=wrap;html=1;" vertex="1" parent="1">
          <mxGeometry x="260" y="580" width="120" height="70" as="geometry" />
        </mxCell>
        <mxCell id="8UEbDqk-dIBro4yHKkm--145" value="&lt;b&gt;P3.3&lt;/b&gt;" style="rounded=1;whiteSpace=wrap;html=1;" vertex="1" parent="1">
          <mxGeometry x="260" y="570" width="120" height="20" as="geometry" />
        </mxCell>
        <mxCell id="8UEbDqk-dIBro4yHKkm--146" value="" style="edgeStyle=none;curved=1;rounded=0;orthogonalLoop=1;jettySize=auto;html=1;fontSize=12;startSize=8;endSize=8;entryX=0.63;entryY=0.997;entryDx=0;entryDy=0;entryPerimeter=0;" edge="1" parent="1" source="8UEbDqk-dIBro4yHKkm--150" target="8UEbDqk-dIBro4yHKkm--154">
          <mxGeometry relative="1" as="geometry">
            <mxPoint x="120" y="750" as="targetPoint" />
            <Array as="points">
              <mxPoint x="270" y="690" />
            </Array>
          </mxGeometry>
        </mxCell>
        <mxCell id="8UEbDqk-dIBro4yHKkm--147" value="Korisnik&amp;nbsp;&lt;div&gt;dobiva informaciju&lt;/div&gt;&lt;div&gt;o uspješnosti prijave&lt;/div&gt;" style="edgeLabel;html=1;align=center;verticalAlign=middle;resizable=0;points=[];fontSize=12;" vertex="1" connectable="0" parent="8UEbDqk-dIBro4yHKkm--146">
          <mxGeometry x="-0.0167" y="1" relative="1" as="geometry">
            <mxPoint as="offset" />
          </mxGeometry>
        </mxCell>
        <mxCell id="8UEbDqk-dIBro4yHKkm--148" value="" style="edgeStyle=none;curved=1;rounded=0;orthogonalLoop=1;jettySize=auto;html=1;fontSize=12;startSize=8;endSize=8;entryX=0.145;entryY=1;entryDx=0;entryDy=-4.35;entryPerimeter=0;" edge="1" parent="1" source="8UEbDqk-dIBro4yHKkm--150" target="8UEbDqk-dIBro4yHKkm--155">
          <mxGeometry relative="1" as="geometry">
            <mxPoint x="520" y="750" as="targetPoint" />
          </mxGeometry>
        </mxCell>
        <mxCell id="8UEbDqk-dIBro4yHKkm--149" value="U bazu se sprema&amp;nbsp;&lt;div&gt;zapis o prijavi korisnika&lt;/div&gt;" style="edgeLabel;html=1;align=center;verticalAlign=middle;resizable=0;points=[];fontSize=12;" vertex="1" connectable="0" parent="8UEbDqk-dIBro4yHKkm--148">
          <mxGeometry x="-0.0068" y="1" relative="1" as="geometry">
            <mxPoint x="11" y="9" as="offset" />
          </mxGeometry>
        </mxCell>
        <mxCell id="8UEbDqk-dIBro4yHKkm--150" value="&lt;div&gt;&lt;b&gt;&lt;br&gt;&lt;/b&gt;&lt;/div&gt;&lt;div&gt;&lt;b style=&quot;background-color: transparent; color: light-dark(rgb(0, 0, 0), rgb(255, 255, 255));&quot;&gt;Isporuka informacije&amp;nbsp;&lt;/b&gt;&lt;/div&gt;&lt;div&gt;&lt;b&gt;o uspješnosti prijave&lt;/b&gt;&lt;/div&gt;&lt;div&gt;&lt;b&gt;na hodočašće&lt;/b&gt;&lt;/div&gt;" style="rounded=1;whiteSpace=wrap;html=1;" vertex="1" parent="1">
          <mxGeometry x="260" y="710" width="120" height="120" as="geometry" />
        </mxCell>
        <mxCell id="8UEbDqk-dIBro4yHKkm--151" value="&lt;b&gt;P3.4&lt;/b&gt;" style="rounded=1;whiteSpace=wrap;html=1;" vertex="1" parent="1">
          <mxGeometry x="260" y="710" width="120" height="20" as="geometry" />
        </mxCell>
        <mxCell id="8UEbDqk-dIBro4yHKkm--152" value="" style="edgeStyle=none;curved=1;rounded=0;orthogonalLoop=1;jettySize=auto;html=1;fontSize=12;startSize=8;endSize=8;" edge="1" parent="1" source="8UEbDqk-dIBro4yHKkm--154">
          <mxGeometry relative="1" as="geometry">
            <mxPoint x="260" y="330" as="targetPoint" />
          </mxGeometry>
        </mxCell>
        <mxCell id="8UEbDqk-dIBro4yHKkm--153" value="Korisnik&amp;nbsp;&lt;div&gt;šalje zahtjev&lt;/div&gt;" style="edgeLabel;html=1;align=center;verticalAlign=middle;resizable=0;points=[];fontSize=12;" vertex="1" connectable="0" parent="8UEbDqk-dIBro4yHKkm--152">
          <mxGeometry x="0.048" y="-3" relative="1" as="geometry">
            <mxPoint as="offset" />
          </mxGeometry>
        </mxCell>
        <mxCell id="8UEbDqk-dIBro4yHKkm--154" value="&lt;b&gt;KORISNIK&lt;/b&gt;" style="rounded=0;whiteSpace=wrap;html=1;" vertex="1" parent="1">
          <mxGeometry x="30" y="300" width="120" height="60" as="geometry" />
        </mxCell>
        <mxCell id="8UEbDqk-dIBro4yHKkm--155" value="&lt;b&gt;Baza podataka&lt;/b&gt;" style="shape=cylinder3;whiteSpace=wrap;html=1;boundedLbl=1;backgroundOutline=1;size=15;fillColor=#dae8fc;strokeColor=#6c8ebf;" vertex="1" parent="1">
          <mxGeometry x="509.99999999999994" y="570" width="60" height="80" as="geometry" />
        </mxCell>
        <mxCell id="8UEbDqk-dIBro4yHKkm--156" value="" style="endArrow=classic;html=1;rounded=0;fontSize=12;startSize=8;endSize=8;curved=1;exitX=1;exitY=0.25;exitDx=0;exitDy=0;entryX=0;entryY=0;entryDx=0;entryDy=27.5;entryPerimeter=0;" edge="1" parent="1">
          <mxGeometry width="50" height="50" relative="1" as="geometry">
            <mxPoint x="379.99999999999994" y="590" as="sourcePoint" />
            <mxPoint x="509.99999999999994" y="590" as="targetPoint" />
          </mxGeometry>
        </mxCell>
        <mxCell id="8UEbDqk-dIBro4yHKkm--158" value="" style="endArrow=classic;html=1;rounded=0;fontSize=12;startSize=8;endSize=8;curved=1;exitX=0;exitY=0;exitDx=0;exitDy=52.5;exitPerimeter=0;" edge="1" parent="1" source="8UEbDqk-dIBro4yHKkm--155">
          <mxGeometry width="50" height="50" relative="1" as="geometry">
            <mxPoint x="419.99999999999994" y="620" as="sourcePoint" />
            <mxPoint x="379.99999999999994" y="623" as="targetPoint" />
          </mxGeometry>
        </mxCell>
        <mxCell id="8UEbDqk-dIBro4yHKkm--159" value="Podaci o&amp;nbsp;&lt;div&gt;župljanima&lt;/div&gt;" style="edgeLabel;html=1;align=center;verticalAlign=middle;resizable=0;points=[];" vertex="1" connectable="0" parent="8UEbDqk-dIBro4yHKkm--158">
          <mxGeometry x="-0.0522" y="2" relative="1" as="geometry">
            <mxPoint as="offset" />
          </mxGeometry>
        </mxCell>
        <mxCell id="8UEbDqk-dIBro4yHKkm--160" value="" style="edgeStyle=none;curved=1;rounded=0;orthogonalLoop=1;jettySize=auto;html=1;fontSize=12;startSize=8;endSize=8;entryX=0.75;entryY=0;entryDx=0;entryDy=0;" edge="1" parent="1" source="8UEbDqk-dIBro4yHKkm--161" target="8UEbDqk-dIBro4yHKkm--145">
          <mxGeometry relative="1" as="geometry" />
        </mxCell>
        <mxCell id="8UEbDqk-dIBro4yHKkm--161" value="&lt;b&gt;DJELATNIK&lt;/b&gt;" style="rounded=0;whiteSpace=wrap;html=1;" vertex="1" parent="1">
          <mxGeometry x="479.99999999999994" y="440" width="120" height="60" as="geometry" />
        </mxCell>
      </root>
    </mxGraphModel>
  </diagram>
</mxfile>
